<?xml version="1.0" encoding="UTF-8" standalone="no"?>
<!DOCTYPE svg PUBLIC "-//W3C//DTD SVG 1.1//EN" "http://www.w3.org/Graphics/SVG/1.1/DTD/svg11.dtd">
<!-- Created with Vectornator (http://vectornator.io/) -->
<svg height="296.9628820133377mm" stroke-miterlimit="10" style="fill-rule:nonzero;clip-rule:evenodd;stroke-linecap:round;stroke-linejoin:round;" version="1.1" viewBox="0 0 595.276 841.89" width="209.97374734760803mm" xml:space="preserve" xmlns="http://www.w3.org/2000/svg" xmlns:xlink="http://www.w3.org/1999/xlink">
<defs>
<linearGradient gradientTransform="matrix(312.279 3.18762 -3.18762 312.279 277.82 428.023)" gradientUnits="userSpaceOnUse" id="LinearGradient" x1="0" x2="1" y1="0" y2="0">
<stop offset="0" stop-color="#1e67ef"/>
<stop offset="1" stop-color="#1652cb"/>
</linearGradient>
<path d="M173.125 253.281C171.91 253.255 170.688 253.376 169.812 253.688C167.163 254.632 164.867 256.931 163.906 259.594C163.668 260.253 163.511 261.577 163.5 262.75C163.477 265.136 164.088 266.986 165.437 268.562C165.919 269.125 166.312 269.684 166.312 269.781C166.312 269.878 165.532 270.662 164.594 271.531C150.596 284.491 128.801 296.021 105.844 302.594C94.8154 305.751 82.7911 307.747 74.4375 307.844L70.6875 307.906C70.6737 307.906 70.6597 307.888 70.6562 307.875L70.3125 306.531C69.6114 303.815 67.68 301.538 65 300.281C63.7558 299.698 63.2549 299.625 61.0625 299.625C58.87 299.625 58.3693 299.698 57.125 300.281C53.2872 302.08 50.8968 306.498 51.625 310.438C52.3563 314.394 54.7942 317.075 58.6562 318.219L60 318.625C60.0132 318.629 60.0006 318.643 60 318.656L59.8437 322.656C58.6315 353.027 43.1877 391.275 23.5 412.625L21.9688 414.313C21.9581 414.324 21.9186 414.323 21.9062 414.313L20.75 413.375C18.0763 411.262 14.2542 410.692 11.125 411.906C9.02449 412.722 6.55065 415.191 5.75 417.281C5.04912 419.111 4.96958 422.187 5.59375 423.938C6.53813 426.587 8.83751 428.883 11.5 429.844C12.1596 430.081 13.4836 430.268 14.6562 430.281C17.042 430.304 18.8925 429.66 20.4688 428.312C21.0317 427.83 21.5904 427.438 21.6875 427.438C21.7846 427.438 22.5685 428.217 23.4375 429.156C36.3973 443.154 47.927 464.949 54.5 487.906C57.6575 498.935 59.6842 510.96 59.7812 519.312L59.8125 523.062C59.8127 523.076 59.7946 523.09 59.7812 523.094L58.4375 523.469C55.7216 524.17 53.4438 526.07 52.1875 528.75C51.6042 529.994 51.5312 530.495 51.5312 532.688C51.5312 534.88 51.6042 535.381 52.1875 536.625C53.9866 540.463 58.4045 542.853 62.3437 542.125C66.2998 541.394 68.9809 538.956 70.125 535.094L70.5312 533.781C70.5352 533.768 70.5488 533.749 70.5625 533.75L74.5937 533.906C104.964 535.118 143.181 550.593 164.531 570.281L166.219 571.812C166.23 571.823 166.229 571.831 166.219 571.844L165.281 573.031C163.183 575.686 162.585 579.495 163.781 582.562C164.873 585.364 167.909 587.917 170.844 588.5C172.184 588.766 174.586 588.571 175.969 588.094C178.466 587.231 180.806 584.868 181.75 582.25C181.988 581.59 182.177 580.298 182.188 579.125C182.211 576.739 181.599 574.857 180.25 573.281C179.768 572.718 179.375 572.192 179.375 572.094C179.375 571.997 180.124 571.182 181.062 570.312C195.06 557.353 216.855 545.854 239.812 539.281C250.841 536.124 262.865 534.098 271.219 534L275 533.969C275.014 533.969 275.027 533.956 275.031 533.969L275.375 535.344C276.076 538.06 278.008 540.307 280.688 541.562C281.932 542.146 282.401 542.219 284.594 542.219C286.786 542.219 287.287 542.146 288.531 541.562C291.391 540.222 293.43 537.538 294 534.375C295.177 527.848 288.802 521.97 282.344 523.625L280.844 524C280.834 524.003 280.82 524.007 280.812 524L261.562 504.906L242.344 485.781C242.336 485.774 242.31 485.791 242.312 485.781L242.719 484.281C244.139 479.049 241.033 473.772 235.75 472.469C232.51 471.669 229.114 472.752 226.656 475.406C225.4 476.764 224.293 478.973 224.281 480.094C224.279 480.33 224.164 480.657 224.062 480.812C223.961 480.968 222.083 481.432 219.875 481.875C204.211 485.016 189.616 490.72 179.688 497.531L177.875 498.75C177.866 498.756 177.853 498.754 177.844 498.75L176.531 498.188C174.47 497.291 171.904 497.235 169.562 498.031L167.719 498.656C167.71 498.659 167.695 498.66 167.688 498.656L166.312 497.719C156.356 490.817 141.632 485.055 125.562 481.812L121.562 481.031C121.55 481.029 121.534 481.012 121.531 481L121.344 479.906C120.756 476.463 117.727 473.284 114.219 472.469C113.46 472.293 112.789 472.105 112.75 472.062C112.711 472.019 112.316 470.177 111.875 467.969C108.771 452.41 103.056 437.672 96.25 427.75L95 425.969C94.9941 425.96 94.9959 425.948 95 425.938L95.5625 424.625C96.4579 422.566 96.5427 419.999 95.75 417.656L95.0938 415.813C95.0907 415.803 95.0883 415.79 95.0938 415.781L96.2812 414.031C103.389 403.612 109.136 388.49 112.281 371.844L112.719 369.562L113.75 369.438C117.158 369.053 120.764 365.491 121.375 361.906L121.531 360.875C121.533 360.863 121.55 360.846 121.562 360.844L126 359.906C141.789 356.641 155.031 351.547 165.375 344.719L167.812 343.094C167.821 343.088 167.834 343.09 167.844 343.094L169.156 343.688C171.045 344.538 174.642 344.537 176.531 343.688L177.844 343.094C177.853 343.09 177.867 343.087 177.875 343.094L180.281 344.719C190.798 351.66 206.065 357.439 221.187 360.219C224.007 360.737 224.281 360.842 224.281 361.344C224.281 362.132 225.004 364.209 225.656 365.25C226.54 366.662 228.69 368.43 230.25 369.031C232.432 369.874 235.477 369.823 237.375 368.938C239.36 368.013 241.161 366.237 242.125 364.281C243.113 362.273 243.396 359.28 242.75 357.438L242.344 356.344C242.34 356.333 242.336 356.321 242.344 356.312L260.219 338.438C270.048 328.597 278.739 319.975 279.531 319.281L280.938 318.031C280.945 318.025 280.959 318.029 280.969 318.031L282.625 318.438C284.87 319.001 286.777 318.768 289 317.656C291.016 316.648 292.531 315.092 293.469 313.094C294.052 311.849 294.156 311.349 294.156 309.156C294.156 306.964 294.052 306.463 293.469 305.219C291.67 301.381 287.283 298.99 283.344 299.719C279.388 300.45 276.676 302.888 275.531 306.75L275.156 308.094C275.152 308.107 275.139 308.094 275.125 308.094L271.094 307.938C240.723 306.725 202.475 291.281 181.125 271.594L179.469 270.062C179.457 270.052 179.458 270.012 179.469 270L180.375 268.844C182.488 266.17 183.09 262.348 181.875 259.219C181.06 257.118 178.559 254.644 176.469 253.844C175.554 253.493 174.34 253.307 173.125 253.281ZM176.406 276.656L177.281 277.406C187.039 285.543 194.978 290.777 205.969 296.344C215.063 300.95 222.249 303.949 231.531 307.031C245.189 311.566 258.132 314.141 270.375 314.75L273.844 314.906C273.87 314.908 273.893 314.951 273.875 314.969L255.812 333.219L237.719 351.469C237.711 351.477 237.699 351.503 237.688 351.5L236.344 351.094C234.697 350.6 232.844 350.581 231.156 351.031C229.481 351.478 228.645 351.928 227.25 353.156C226.608 353.722 225.88 354.169 225.625 354.156C224.547 354.109 218.277 352.852 214.031 351.812C202.702 349.038 192.553 344.816 184.906 339.75L182.25 338L182.25 335.375C182.243 333.253 182.134 332.455 181.687 331.344C180.961 329.539 179.363 327.758 177.688 326.812L176.375 326.062C176.366 326.057 176.344 326.042 176.344 326.031L176.344 301.344L176.344 276.688C176.344 276.662 176.387 276.64 176.406 276.656ZM169.156 276.75C169.176 276.734 169.187 276.756 169.188 276.781L169.344 283.281C169.415 286.892 169.497 297.971 169.531 307.906L169.594 325.938C169.594 325.949 169.572 325.963 169.562 325.969L168.438 326.562C164.982 328.389 162.756 332.773 163.469 336.375L163.75 337.656C163.752 337.668 163.728 337.68 163.719 337.688L162.469 338.625C161.762 339.156 159.934 340.344 158.438 341.25C149.471 346.676 137.475 350.92 124.062 353.438C121.876 353.848 119.979 354.188 119.812 354.188C119.645 354.188 119.101 353.778 118.625 353.281C118.149 352.786 117.078 352.045 116.25 351.625C115.018 350.999 114.371 350.841 112.625 350.75C111.185 350.675 110.097 350.756 109.312 351L108.187 351.344C108.177 351.347 108.164 351.352 108.156 351.344L89.9375 333.125L71.7187 314.938C71.7002 314.919 71.7239 314.876 71.75 314.875L75.5312 314.719C87.2832 314.212 100.787 311.491 114.5 306.906C134.376 300.26 152.796 290.403 166.187 279.219L169.156 276.75ZM66.875 319.875L85.0937 337.969L103.344 356.062C103.351 356.07 103.347 356.083 103.344 356.094L102.969 357.438C102.497 359.137 102.498 360.943 102.938 362.594C103.386 364.277 103.834 365.133 105.094 366.562L106.156 367.75C106.162 367.757 106.158 367.773 106.156 367.781L105.5 371.438C104.654 376.124 102.901 383.234 101.562 387.438C99.144 395.036 95.2407 403.506 91.7187 408.781L89.9062 411.5C89.9007 411.508 89.8852 411.5 89.875 411.5L87.1562 411.5C84.7174 411.507 84.2491 411.603 83 412.188C81.204 413.029 79.708 414.356 78.6875 416.062L77.9062 417.406C77.9008 417.415 77.8856 417.406 77.875 417.406L53.2188 417.406L28.5938 417.406C28.5682 417.406 28.5462 417.394 28.5625 417.375L29.3125 416.469C37.4497 406.711 42.683 398.804 48.25 387.812C52.8564 378.718 55.8556 371.5 58.9375 362.219C63.4722 348.561 66.0469 335.649 66.6562 323.406L66.8437 319.906C66.845 319.88 66.8565 319.856 66.875 319.875ZM77.8438 424.188C77.8549 424.187 77.8698 424.178 77.875 424.188L78.5 425.344C80.3493 428.842 84.914 431.079 88.5 430.25L89.5625 430C89.5743 429.997 89.5866 430.021 89.5937 430.031L90.5 431.281C97.1696 440.54 102.722 455.045 105.5 470.438L106.156 474.125C106.158 474.135 106.163 474.149 106.156 474.156L105.156 475.188C103.539 476.847 102.753 478.632 102.625 481.031C102.553 482.383 102.66 483.504 102.906 484.344L103.25 485.594C103.253 485.604 103.258 485.617 103.25 485.625L85.0312 503.844L66.8437 522.031C66.8252 522.05 66.7823 522.026 66.7812 522L66.625 518.219C66.1182 506.467 63.4288 492.962 58.8437 479.25C52.1979 459.374 42.3088 440.953 31.125 427.562L28.6562 424.625C28.6401 424.606 28.6622 424.563 28.6875 424.562L35.1875 424.438C38.7982 424.366 49.8772 424.286 59.8125 424.25L77.8438 424.188ZM119.688 487.594L123.344 488.281C130.999 489.669 139.325 491.953 145.781 494.469C150.297 496.229 157.346 499.817 160.656 502.031L163.406 503.844C163.415 503.849 163.406 503.865 163.406 503.875L163.406 506.625C163.414 509.06 163.509 509.533 164.094 510.781C164.935 512.577 166.263 514.042 167.969 515.062L169.312 515.875C169.322 515.88 169.312 515.896 169.312 515.906L169.312 540.531C169.312 554.091 169.284 565.192 169.25 565.188C169.215 565.183 167.843 564.046 166.187 562.656C143.098 543.273 105.645 528.604 75.3125 527.094L71.8125 526.938C71.7865 526.936 71.7629 526.894 71.7812 526.875L89.875 508.656L107.969 490.406C107.976 490.399 107.989 490.403 108 490.406L109.5 490.812C112.683 491.683 115.961 490.887 118.469 488.656L119.656 487.625C119.663 487.619 119.678 487.592 119.688 487.594ZM226.031 487.594C226.041 487.592 226.056 487.587 226.062 487.594L227.094 488.625C228.753 490.242 230.538 490.997 232.938 491.125C234.289 491.197 235.41 491.122 236.25 490.875L237.5 490.5C237.511 490.497 237.523 490.492 237.531 490.5L255.75 508.719L273.938 526.938C273.956 526.956 273.932 526.968 273.906 526.969L270.156 527.125C258.404 527.632 244.869 530.352 231.156 534.938C212.296 541.244 194.102 550.807 181.406 561.094C179.666 562.504 177.825 564.01 177.312 564.438L176.406 565.188C176.387 565.204 176.375 565.182 176.375 565.156L176.281 558.625C176.241 554.993 176.192 543.873 176.156 533.938L176.094 515.906C176.094 515.895 176.084 515.88 176.094 515.875L177.25 515.281C180.748 513.432 182.985 508.867 182.156 505.281L181.906 504.219C181.904 504.207 181.928 504.195 181.938 504.188L183.187 503.25C192.446 496.58 206.951 491.028 222.344 488.25L226.031 487.594Z" id="Fill"/>
<filter color-interpolation-filters="sRGB" filterUnits="userSpaceOnUse" height="572.818" id="Filter" width="562.32" x="-119.054" y="128.266">
<feGaussianBlur in="SourceGraphic" result="Blur" stdDeviation="27.0349"/>
</filter>
<filter color-interpolation-filters="sRGB" filterUnits="userSpaceOnUse" height="259.539" id="Filter_2" width="257.611" x="-258.864" y="451.372">
<feGaussianBlur in="SourceGraphic" result="Blur" stdDeviation="27.0349"/>
</filter>
<filter color-interpolation-filters="sRGB" filterUnits="userSpaceOnUse" height="350.374" id="Filter_3" width="344.48" x="6.71958" y="249.899">
<feGaussianBlur in="SourceGraphic" result="Blur" stdDeviation="27.0349"/>
</filter>
<filter color-interpolation-filters="sRGB" filterUnits="userSpaceOnUse" height="387.982" id="Filter_4" width="415.819" x="-24.6001" y="232.29">
<feGaussianBlur in="SourceGraphic" result="Blur" stdDeviation="27.0349"/>
</filter>
<filter color-interpolation-filters="sRGB" filterUnits="userSpaceOnUse" height="262.623" id="Filter_5" width="256.454" x="-252.31" y="30.7556">
<feGaussianBlur in="SourceGraphic" result="Blur" stdDeviation="27.0349"/>
</filter>
<filter color-interpolation-filters="sRGB" filterUnits="userSpaceOnUse" height="671.001" id="Filter_6" width="611.29" x="-135.296" y="113.41">
<feGaussianBlur in="SourceGraphic" result="Blur" stdDeviation="27.0349"/>
</filter>
<filter color-interpolation-filters="sRGB" filterUnits="userSpaceOnUse" height="381.646" id="Filter_7" width="404.271" x="-26.1376" y="231.114">
<feGaussianBlur in="SourceGraphic" result="Blur" stdDeviation="27.0349"/>
</filter>
</defs>
<g id="layer1">
<g opacity="1">
<path d="M147.43 459.306C144.069 458.457 142.186 456.148 140.598 450.928C139.631 447.751 126.447 394.22 126.014 391.713C125.426 388.314 125.88 386.271 127.626 384.462C128.983 383.056 130.269 382.479 132.348 382.343C135.529 382.135 137.692 383.288 138.749 385.754C139.784 388.17 140.415 390.749 145.385 412.888C148.219 425.513 150.581 435.886 150.633 435.938C150.762 436.067 150.778 436.008 156.66 414.026C162.725 391.363 163.129 389.936 164.059 387.884C164.966 385.885 166.749 383.986 168.54 383.112C169.829 382.483 170.203 382.423 172.861 382.419C175.696 382.414 175.815 382.436 177.501 383.294C179.943 384.537 181.238 386.295 182.416 389.966C182.899 391.47 185.931 402.439 189.154 414.341C192.376 426.243 195.084 435.896 195.171 435.792C195.258 435.688 197.509 425.837 200.173 413.901C206.671 384.786 206.339 386.012 208.237 384.089C209.468 382.842 210.391 382.467 212.544 382.339C214.346 382.232 214.614 382.286 216.11 383.02C218.733 384.311 220.006 386.363 220.002 389.295C219.999 391.358 219.392 393.988 212.352 422.431C205.475 450.217 204.748 452.967 203.774 454.89C202.145 458.103 199.045 459.763 195.167 459.497C194.034 459.419 192.746 459.153 192.08 458.858C190.672 458.236 188.802 456.544 188.021 455.187C187.051 453.5 185.937 449.645 179.495 425.689C176.1 413.065 173.227 402.51 173.111 402.234C172.932 401.81 172.852 401.907 172.594 402.862C167.443 421.856 159.647 450.151 159.153 451.645C158.178 454.59 157.629 455.618 156.325 456.944C154.672 458.625 152.97 459.349 150.421 459.457C149.295 459.505 147.949 459.44 147.43 459.306ZM246.688 402.906C242.922 403.006 239.175 403.711 236.062 404.969C226.134 408.979 220.481 418.429 220.469 431.062C220.463 436.89 221.271 441.023 223.25 445.188C227.002 453.084 233.697 457.783 243.125 459.156C249.343 460.062 256.096 459.317 261.219 457.156C268.667 454.015 273.724 447.475 272.062 443.125C271.325 441.195 269.179 440.197 266.531 440.594C265.52 440.745 265.052 441.1 262.594 443.312C256.483 448.814 253.484 450.281 248.469 450.281C244.379 450.281 241.772 449.246 239.062 446.531C236.564 444.028 235.008 440.445 234.625 436.344L234.5 434.781C234.498 434.764 234.514 434.75 234.531 434.75L250 434.656C266.974 434.542 267.552 434.486 270.219 433.031C271.211 432.49 271.685 432.033 272.281 430.969C272.987 429.71 273.071 429.355 273.156 426.875C273.255 423.997 273.011 422.066 272.156 419.406C269.891 412.356 264.384 406.793 257.406 404.406C254.217 403.315 250.453 402.807 246.688 402.906ZM247.781 412.562C249.541 412.634 251.276 413.041 252.781 413.781C256.639 415.677 259.017 419.621 259.75 425.375L259.906 426.656C259.909 426.674 259.893 426.688 259.875 426.688L247.219 426.688L234.562 426.688C234.544 426.688 234.529 426.674 234.531 426.656L234.688 425.5C235.576 419.383 238.497 414.944 242.625 413.375C244.239 412.762 246.022 412.491 247.781 412.562ZM289.75 382.281C287.178 382.283 285.249 383.62 284.062 386.188C283.62 387.145 283.604 388.71 283.531 419.938C283.49 437.945 283.51 453.259 283.594 453.969C283.765 455.414 284.977 457.622 286 458.375C286.353 458.635 287.081 458.994 287.625 459.188C289.965 460.021 292.7 459.412 294.406 457.656C295.666 456.36 296.24 454.846 296.438 452.281L296.562 450.469C296.564 450.443 296.607 450.419 296.625 450.438L299.375 453.156C303.591 457.327 306.581 458.792 312.156 459.375C318.775 460.067 324.747 458.077 329.406 453.625C333.615 449.604 336.253 444.08 337.281 437.156C337.776 433.842 337.794 427.705 337.312 424.5C335.561 412.837 329.1 405.327 319.219 403.469C316.426 402.943 311.044 403.091 308.562 403.75C305.04 404.685 301.771 406.584 298.438 409.656L296.562 411.375C296.543 411.393 296.531 411.401 296.531 411.375L296.531 400.406C296.531 386.767 296.396 385.827 294.062 383.719C292.909 382.676 291.709 382.28 289.75 382.281ZM311.656 413.406C313.121 413.492 314.536 413.805 315.688 414.344C318.632 415.721 320.964 418.365 322.25 421.781C323.398 424.829 323.701 426.783 323.719 430.969C323.746 436.468 323.004 439.641 320.969 442.875C319.751 444.81 317.694 446.679 315.656 447.688C313.98 448.517 313.605 448.611 311.25 448.688C309.497 448.744 308.268 448.665 307.344 448.406C302.714 447.108 299.214 443.267 297.875 438C296.977 434.466 297.054 428.063 298.031 424.5C298.677 422.147 300.24 419.065 301.562 417.562C302.944 415.993 305.314 414.501 307.375 413.875C308.678 413.479 310.191 413.321 311.656 413.406ZM354 382.313C351.218 382.29 349.464 383.341 348.281 385.75L347.605 387.165C347.597 387.18 347.594 387.196 347.594 387.213L347.594 420.938C347.594 457.384 347.523 455.37 348.906 457.25C349.61 458.206 350.35 458.752 351.656 459.219C353.909 460.023 356.678 459.384 358.375 457.688C359.639 456.423 360.23 454.83 360.406 452.281L360.531 450.469C360.533 450.443 360.575 450.419 360.594 450.438L363.344 453.156C367.343 457.099 370.245 458.598 375.156 459.281C388.799 461.179 399.476 451.817 401.406 436.281C401.757 433.466 401.733 427.32 401.375 424.938C399.673 413.614 394.14 406.48 385 403.844C382.204 403.037 376.686 402.896 373.469 403.562C369.476 404.39 366.151 406.235 362.438 409.656L360.562 411.375C360.543 411.393 360.5 411.401 360.5 411.375L360.5 400.25C360.5 388.408 360.399 387.29 359.312 385.312C358.215 383.315 356.479 382.33 354 382.313ZM374.906 413.406C380.088 413.415 384.04 416.316 386.188 421.719C388.568 427.708 388.294 436.396 385.562 441.812C384.438 444.042 381.865 446.596 379.656 447.688C377.976 448.518 377.598 448.613 375.375 448.688C371.132 448.83 368.149 447.676 365.5 444.844C363.78 443.005 362.747 441.105 361.938 438.312C361.438 436.58 361.369 435.815 361.375 431.594C361.385 426 361.67 424.548 363.406 420.969C365.784 416.068 369.845 413.4 374.906 413.406ZM416.244 459.26C414.954 458.824 413.083 456.987 412.408 455.493L411.82 454.191C411.813 454.176 411.81 454.161 411.81 454.145L411.81 420.8L411.81 387.457C411.81 387.44 411.813 387.424 411.82 387.409L412.34 386.301C413.578 383.657 415.619 382.295 418.351 382.291C420.495 382.288 422.108 382.904 423.38 384.214C425.507 386.402 425.358 383.641 425.358 420.926C425.358 452.685 425.341 453.964 424.884 455.148C424.301 456.659 422.97 458.172 421.612 458.868C420.414 459.482 417.526 459.693 416.244 459.259L416.244 459.26ZM462.312 402.938C457.02 403.34 451.815 404.964 447.969 407.719C441.884 412.077 438.302 419.073 437.531 428.125C436.425 441.116 441.55 451.758 451.219 456.531C454.211 458.008 456.615 458.666 461.5 459.406C463.175 459.66 470.83 459.362 472.625 458.969C479.963 457.362 485.794 453.569 488.375 448.719C489.251 447.072 489.34 446.717 489.344 444.969C489.348 442.692 488.918 441.947 487.188 441.062C485.895 440.402 483.86 440.297 482.625 440.844C482.181 441.04 480.693 442.235 479.312 443.5C473.761 448.592 470.358 450.269 465.5 450.281C461.66 450.288 458.669 449.087 456.094 446.5C453.605 444 452.16 440.64 451.688 436.281L451.5 434.75C451.498 434.732 451.513 434.719 451.531 434.719L465.906 434.719C480.862 434.711 482.909 434.61 485.812 433.688C489.104 432.641 490.219 430.723 490.219 426.156C490.219 417.386 485.343 409.691 477.156 405.5C472.969 403.356 467.605 402.535 462.312 402.938ZM463.656 412.688C467.805 412.537 470.502 413.52 472.906 416.062C474.924 418.196 476.076 421.073 476.75 425.625L476.906 426.656C476.909 426.674 476.893 426.688 476.875 426.688L464.25 426.688L451.594 426.688C451.575 426.687 451.56 426.674 451.562 426.656L451.719 425.625C452.031 423.583 452.855 420.793 453.562 419.281C454.636 416.988 456.922 414.663 459.156 413.625C460.798 412.862 461.263 412.775 463.656 412.688ZM506.637 459.164C504.21 458.302 502.67 456.1 502.24 452.877C502.069 451.593 502.005 443.658 502.059 430.083C502.14 409.381 502.144 409.25 502.694 407.618C503.764 404.445 505.659 403.049 508.905 403.043C512.794 403.037 514.648 404.897 515.331 409.491L515.572 411.112C515.587 411.212 515.717 411.242 515.774 411.159L516.858 409.573C520.49 404.261 524.156 402.42 529.729 403.113C534.039 403.649 537.789 405.508 539.438 407.928C541.277 410.627 540.129 414.629 537.067 416.191C535.646 416.916 534.422 416.854 531.108 415.889C527.17 414.743 524.389 414.695 522.267 415.737C519.269 417.209 517.715 420.292 516.652 426.878C516.354 428.721 516.21 432.352 516.073 441.499C515.864 455.426 515.862 455.435 513.807 457.546C511.983 459.418 509.152 460.057 506.637 459.164L506.637 459.164ZM560.714 459.308C556.502 458.611 554.187 457.922 551.431 456.544C546.612 454.136 543.557 450.651 542.683 446.567C542.282 444.692 542.335 443.797 542.921 442.503C543.964 440.202 545.607 439.152 548.169 439.148C550.72 439.144 551.611 439.806 554.077 443.532C556.809 447.663 559.115 449.337 563.21 450.167C565.747 450.681 569.48 450.554 571.376 449.889C573.249 449.233 574.952 448.033 575.781 446.787C577.072 444.847 576.701 441.907 574.929 440.034C573.479 438.502 571.085 437.537 564.279 435.741C558.89 434.318 554.314 432.789 552.092 431.669C547.331 429.269 544.373 426.015 543.386 422.094C542.933 420.297 543.207 416.122 543.894 414.326C544.752 412.087 546.669 409.42 548.459 407.975C552.187 404.966 555.859 403.616 561.739 403.095C571.117 402.263 580.21 404.858 584.625 409.627C586.535 411.69 587.396 413.562 587.405 415.672C587.416 418.79 585.45 420.852 582.217 421.109C579.209 421.348 578.054 420.687 574.518 416.704C570.969 412.708 568.83 411.743 563.963 411.943C561.663 412.038 561.096 412.154 559.695 412.814C556.927 414.119 555.819 415.624 556.002 417.833C556.272 421.075 558.71 422.417 569.118 425.05C576.895 427.018 580.439 428.354 583.786 430.579C586.954 432.684 589.432 436.019 589.933 438.848C590.258 440.685 590.088 444.098 589.569 446.15C587.82 453.057 582.683 457.15 573.509 458.947C571.033 459.433 562.86 459.663 560.714 459.307L560.714 459.308Z" fill="url(#LinearGradient)" fill-rule="nonzero" opacity="1" stroke="none"/>
</g>
</g>
<clipPath id="ArtboardFrame">
<rect height="841.89" width="595.276" x="0" y="0"/>
</clipPath>
<g clip-path="url(#ArtboardFrame)" id="Layer-1">
<use fill="#1e6fef" fill-rule="nonzero" opacity="1" stroke="none" xlink:href="#Fill"/>
<clipPath clip-rule="nonzero" id="ClipPath">
<use xlink:href="#Fill"/>
</clipPath>
<g clip-path="url(#ClipPath)">
<g filter="url(#Filter)" opacity="1">
<path d="M173.556 198.806C153.435 198.497 133.259 200.911 113.835 206.145C105.028 208.518 96.2815 211.412 87.9172 215.066C76.2591 220.159 66.0913 227.797 55.1921 234.246C44.0285 240.851 32.8822 247.507 22.6852 255.567C10.1493 265.475-1.0554 277.337-10.5037 290.215C-20.2068 303.441-27.9956 318.025-33.6936 333.403C-36.9981 342.322-39.5196 351.484-41.6737 360.74C-50.2489 397.588-54.3186 436.369-43.6517 473.266C-41.6452 480.206-39.1466 487.017-36.149 493.591C-31.468 503.857-25.568 513.524-18.6611 522.442C-12.4717 530.434-5.48987 537.783 1.66422 544.909C12.1833 555.388 23.3976 565.146 35.2624 574.074C46.4334 582.48 58.1653 590.139 70.3201 597.046C77.4131 601.076 84.6889 604.747 91.9413 608.477C101.555 613.421 111.21 618.335 121.27 622.323C133.451 627.152 146.109 630.633 159.138 632.185C171.988 633.716 184.96 633.505 197.824 632.253C210.526 631.018 223.124 628.821 235.774 627.165C252.579 624.966 269.368 622.359 285.523 617.071C304.251 610.941 321.401 601.329 336.718 588.97C362.652 567.948 366.634 529.879 345.612 503.945C324.59 478.011 286.521 474.029 260.587 495.051C258.045 497.128 255.41 499.05 252.443 500.48C247.288 502.965 241.562 504.157 235.965 505.159C229.412 506.332 222.806 507.168 216.212 508.064C208.543 509.107 200.907 510.375 193.24 511.434C186.746 512.331 180.118 513.192 173.556 512.621C170.036 512.314 166.736 510.893 163.503 509.579C158.734 507.639 154.131 505.201 149.548 502.867C142.745 499.402 135.875 496.076 129.195 492.377C122.249 488.531 115.512 484.301 109.047 479.691C99.8975 473.166 91.3845 465.837 83.4156 457.92C78.8475 453.381 73.7824 448.677 71.2204 442.628C68.1801 435.449 67.8618 427.242 68.1375 419.561C68.4502 410.85 69.7985 402.217 71.4387 393.67C72.409 388.614 73.4597 383.522 74.8217 378.555C77.6325 368.305 82.4515 359.56 89.6769 351.764C91.4086 349.896 93.2053 348.052 95.1743 346.431C101.748 341.019 109.368 336.854 116.605 332.421C120.152 330.248 123.688 328.053 127.135 325.723C129.669 324.01 132.156 322.245 134.747 320.621C154.812 312.605 177.768 311.77 198.574 317.348C201.613 318.162 204.751 318.993 207.591 320.376C210.645 321.863 213.47 323.827 216.239 325.778C219.545 328.106 222.775 330.537 226.007 332.967C232.707 338.006 239.409 342.934 246.796 346.949C251.869 349.707 257.112 352.136 262.306 354.656C263.002 354.994 263.685 355.362 264.379 355.707C275.107 376.579 298.046 389.547 322.654 386.331C353.994 382.235 376.076 353.503 371.98 322.163C371.16 316.328 369.896 310.636 367.847 305.098C361.193 287.113 347.924 272.821 332.025 262.497C325.321 258.142 318.204 254.493 311.018 251.011C308.735 249.904 306.441 248.815 304.17 247.682C303.462 247.329 302.754 246.977 302.056 246.605C301.78 246.457 301.51 246.308 301.237 246.154C301.22 246.144 301.201 246.137 301.183 246.127C299.978 245.135 298.647 244.236 297.404 243.303C295.106 241.578 292.802 239.843 290.502 238.12C283.446 232.833 276.262 227.727 268.676 223.224C246.005 209.765 219.726 202.772 193.636 200.02C186.971 199.317 180.264 198.909 173.556 198.806Z" fill="#1652cb" stroke="none"/>
</g>
<g filter="url(#Filter_2)" opacity="1">
<path d="M-128.228 522.174C-150.527 521.77-171.959 534.501-181.586 556.163C-183.09 556.863-184.585 557.585-186.069 558.327C-199.627 588.833-185.888 624.554-155.382 638.113C-124.875 651.671-89.1497 637.932-75.5911 607.426C-76.0348 605.827-76.503 604.237-76.9909 602.651C-64.1541 573.768-77.1638 539.944-106.047 527.107C-113.267 523.898-120.795 522.308-128.228 522.174Z" fill="#1e6fef" stroke="none"/>
</g>
<g filter="url(#Filter_3)" opacity="1">
<path d="M171.387 319.405C152.521 319.958 134.119 325.995 118.782 337.035C95.6507 353.686 81.7416 380.697 77.1957 408.431C75.0726 421.384 74.9895 434.529 77.8583 447.381C89.5599 499.804 144.53 537.551 197.569 531.291C231.008 527.345 260.612 506.369 274.649 475.64C277.881 468.565 280.238 461.095 281.657 453.447C283.06 445.886 283.598 438.099 283.112 430.42C282.374 418.758 278.625 407.78 273.692 397.277C272.817 392.784 271.597 388.351 269.997 384.004C265.583 372.014 258.617 361.029 249.846 351.756C240.237 341.596 228.47 333.52 215.637 327.991C201.736 322.002 186.53 318.96 171.387 319.405Z" fill="#1e6fef" stroke="none"/>
</g>
<g filter="url(#Filter_4)" opacity="1">
<path d="M209.124 301.066C201.892 301.077 194.679 301.911 187.473 303.065C179.786 304.295 172.173 305.839 164.685 307.987C150.322 312.106 136.765 318.074 123.391 324.641C122.722 324.97 121.445 325.42 120.541 325.779C118.289 326.675 116.032 327.584 113.824 328.583C109.419 330.576 105.155 332.867 101.083 335.476C95.0935 339.313 89.4446 343.741 84.1419 348.476C70.6915 360.484 59.3708 375.059 52.1006 391.62C36.0167 428.258 42.7538 472.661 66.7473 504.287C78.5017 519.781 94.2472 531.87 111.955 539.817C141.096 552.894 174.259 554.791 205.571 550.457C214.752 549.186 223.731 547.179 232.746 545.072C239.903 543.4 247.092 541.853 254.119 539.678C262.859 536.972 271.34 533.365 279.165 528.603C293.54 519.854 305.073 507.679 314.13 493.582C329.872 468.93 325.489 437.188 305.239 417.619C306.464 401.25 304.033 384.805 297.67 369.571C293.364 359.262 287.345 349.797 280.803 340.778C276.03 334.196 270.768 327.986 264.713 322.541C252.794 311.824 238.033 304.527 222.17 302.037C217.812 301.354 213.464 301.059 209.124 301.066Z" fill="#1e6fef" stroke="none"/>
</g>
<g filter="url(#Filter_5)" opacity="1">
<path d="M-123.473 101.56C-153.75 101.315-179.221 124.864-181.019 155.43C-181.179 155.969-181.217 156.558-181.499 157.044C-182.187 158.231-183.506 158.975-184.167 160.177C-184.437 160.667-184.469 161.255-184.619 161.795C-186.579 195.121-161.151 223.728-127.824 225.689C-94.4976 227.649-65.8944 202.22-63.934 168.894C-64.0198 168.341-63.9791 167.755-64.1897 167.236C-64.7057 165.965-65.9307 165.071-66.4749 163.812C-66.6978 163.296-66.6634 162.704-66.7585 162.15C-64.9025 130.598-88.9765 103.516-120.529 101.66C-121.515 101.602-122.497 101.568-123.473 101.56Z" fill="#1652cb" stroke="none"/>
</g>
<g filter="url(#Filter_6)" opacity="1">
<path d="M151.524 184.038C143.372 183.948 135.219 184.336 127.108 185.071C111.995 186.441 97.0468 188.958 82.6113 193.737C72.3758 197.126 62.477 201.453 52.8966 206.387C47.1317 209.355 41.5447 212.621 35.8977 215.803C30.9153 218.61 25.8843 221.315 21.0653 224.402C14.5502 228.576 8.4037 233.321 2.88315 238.751C-4.14271 245.662-10.0676 253.568-14.7824 262.216C-16.7262 265.782-18.4502 269.466-20.082 273.182C-20.9624 275.187-21.7517 277.272-22.7652 279.215C-24.8122 283.141-26.9134 287.038-28.8981 290.998C-32.3603 297.905-35.6199 304.907-38.9808 311.863C-42.3699 318.877-46.3891 325.579-49.8468 332.562C-54.5311 342.022-58.448 351.915-60.7961 362.227C-62.3901 369.227-63.116 376.339-63.5292 383.492C-64.5091 400.452-63.2495 417.437-64.2125 434.389C-65.1632 451.123-66.1529 467.868-65.4458 484.635C-64.3862 509.761-59.771 534.95-48.6135 557.664C-40.9163 573.334-30.1725 587.301-18.2488 599.978C-14.5687 603.89-10.7621 607.662-6.86622 611.344C-12.4428 619.148-16.244 628.385-17.5822 638.559C-21.936 671.658 1.3655 702.017 34.4644 706.371C36.8876 706.687 39.3021 707.048 41.7306 707.321C43.8956 707.732 46.0803 708.069 48.2469 708.471C57.2628 710.145 66.2036 712.167 75.2618 713.621C87.9617 715.658 100.848 716.674 113.709 716.737C132.722 716.83 151.645 714.198 170.422 711.421C200.376 706.991 230.102 700.246 258.633 690.005C282.733 681.356 305.883 670.109 328.112 657.441C333.91 654.136 339.583 650.636 345.194 647.025C346.707 646.052 348.209 645.072 349.727 644.108C350.344 643.717 351.061 643.431 351.594 642.942C351.603 642.933 351.618 642.934 351.627 642.925C352.268 642.599 352.908 642.277 353.544 641.942C355.111 641.116 356.622 640.287 358.144 639.375C361.497 637.366 364.715 635.152 367.743 632.676C379.507 623.054 388.723 608.845 391.591 593.795C392.005 591.624 392.396 589.432 392.575 587.229C392.8 584.449 392.986 581.646 392.808 578.863C392.571 575.154 392.29 571.406 391.341 567.813C390.039 562.881 388.517 557.935 386.092 553.448C383.302 548.286 379.938 543.333 375.842 539.132C371.606 534.786 366.659 531.071 361.377 528.083C356.547 525.35 351.197 523.484 345.811 522.15C341.044 520.969 336.066 520.854 331.162 520.6C328.866 520.48 326.558 520.733 324.279 521.033C321.338 521.42 318.413 521.952 315.53 522.65C313.167 523.221 310.866 524.008 308.58 524.833C305.105 526.087 301.959 527.614 298.731 529.366C297.295 530.145 295.869 531.058 294.464 531.949C293.949 532.183 293.429 532.413 292.914 532.649C290.239 533.874 287.568 535.127 284.898 536.365C277.195 539.937 269.501 543.531 261.633 546.731C257.187 548.54 252.677 550.215 248.084 551.614C239.517 554.225 230.728 556.053 221.936 557.714C210.772 559.823 199.551 561.618 188.388 563.73C181.337 565.064 174.32 566.528 167.256 567.797C162.057 568.73 156.818 569.595 151.54 569.913C145.852 570.256 139.018 570.203 134.225 567.663C130.277 565.572 126.602 562.955 122.925 560.43C118.391 557.317 113.84 554.235 109.243 551.214C99.0914 544.544 88.7161 538.086 79.3115 530.366C75.3927 527.149 71.7085 523.654 68.1789 520.016C65.4514 517.205 62.8052 514.309 60.3961 511.217C58.9032 509.301 57.4556 507.312 56.3964 505.117C52.6571 497.37 51.9614 488.28 51.43 479.836C50.3594 462.82 52.3056 445.762 52.5466 428.756C52.6987 418.02 52.2066 407.293 52.2466 396.558C52.256 394.044 52.3099 391.518 52.4466 389.008C52.477 388.451 52.5246 387.898 52.5633 387.342C53.7812 383.772 56.0636 379.785 57.8796 376.359C60.0621 372.241 62.2558 368.134 64.2958 363.943C68.7638 354.765 72.8294 345.388 77.5783 336.345C79.8459 332.027 82.0326 327.704 83.9779 323.229C84.4313 322.186 84.8782 321.141 85.3278 320.096C86.0541 319.698 86.7923 319.333 87.4777 318.946C90.1985 317.412 92.9246 315.88 95.6272 314.313C104.702 309.053 114.099 303.637 124.442 301.331C128.773 300.365 133.246 299.899 137.658 299.481C144.968 298.787 152.44 298.459 159.74 299.464C164.012 300.052 168.193 301.286 172.372 302.314C177.913 303.677 183.457 305.023 189.038 306.214C200.594 308.679 212.29 310.217 224.019 311.58C234.648 312.815 245.318 313.846 255.85 315.78C257.916 316.159 259.973 316.604 262.016 317.08C263.415 319.374 264.79 321.68 266.216 323.962C268.573 327.734 271.082 331.429 273.649 335.062C276.309 338.826 279.129 342.53 282.465 345.728C297.611 360.246 318.767 366.77 339.045 369.959C370.265 374.886 399.564 353.566 404.491 322.346C409.258 292.135 389.418 263.787 359.843 257.517C357.744 254.034 355.625 250.577 353.294 247.234C345.34 235.828 335.576 225.814 323.646 218.553C314.291 212.859 303.785 209.527 293.248 206.787C273.395 201.623 253.022 199.675 232.718 197.204C225.303 196.301 217.942 195.238 210.653 193.587C199.065 190.963 187.673 187.545 175.889 185.855C167.815 184.696 159.675 184.129 151.524 184.038Z" fill="#1652cb" stroke="none"/>
</g>
<g filter="url(#Filter_7)" opacity="0.164219">
<path d="M179.887 299.018C167.312 298.751 154.929 301.107 142.74 304.198C136.466 305.789 130.179 307.271 124.049 309.378C112.857 313.225 102.209 318.614 92.6055 325.543C79.3313 335.12 68.0155 347.386 60.1483 361.769C55.404 370.443 52.1434 379.63 48.9265 388.936C47.5139 393.023 45.988 397.046 44.8958 401.24C43.0321 408.396 42.0616 415.713 42.234 423.117C42.5015 434.609 45.689 445.838 50.3208 456.293C52.395 460.974 54.8526 465.436 57.2753 469.94C59.3095 473.721 61.3065 477.509 63.6552 481.111C66.9661 486.188 70.7862 490.854 75.0545 495.155C81.1354 501.283 87.8887 506.722 95.1912 511.329C100.952 514.962 107.109 517.8 113.013 521.165C114.825 522.197 116.505 523.487 118.243 524.638C120.394 526.061 122.572 527.443 124.809 528.727C132.48 533.13 140.73 536.528 149.222 538.986C167.132 544.17 186.045 544.783 204.41 541.91C213.041 540.559 221.414 538.33 229.819 536.003C234.221 534.785 238.65 533.691 243.002 532.293C251.014 529.72 258.797 526.373 265.944 521.9C279.569 513.371 291.015 500.908 297.564 486.172C300.898 480.765 303.667 475.044 305.727 469.128C312.467 449.782 311.517 429.002 305.305 409.681C304.199 406.24 302.911 402.867 301.561 399.516C303.615 382.826 298.357 365.395 285.675 352.448C282.948 349.675 280.425 346.72 277.605 344.032C274.404 340.98 270.983 338.147 267.355 335.616C266.081 334.727 264.781 333.879 263.468 333.047C248.857 320.027 230.879 310.546 212.328 304.781C203.548 302.053 194.457 300.063 185.287 299.297C183.482 299.146 181.684 299.056 179.887 299.018Z" fill="#ffffff" stroke="none"/>
</g>
</g>
</g>
<g id="Layer-2"/>
</svg>
